<svg width="104" height="104" viewBox="0 0 104 104" fill="none" xmlns="http://www.w3.org/2000/svg">
<path d="M68.25 97.5C63.1077 97.5 58.0809 95.9751 53.8052 93.1182C49.5295 90.2613 46.197 86.2007 44.2291 81.4498C42.2613 76.6989 41.7464 71.4712 42.7496 66.4277C43.7528 61.3842 46.2291 56.7514 49.8652 53.1152C53.5014 49.4791 58.1342 47.0028 63.1777 45.9996C68.2212 44.9964 73.4489 45.5113 78.1998 47.4791C82.9507 49.447 87.0113 52.7795 89.8682 57.0552C92.7251 61.3309 94.25 66.3577 94.25 71.5C94.25 78.3956 91.5107 85.0088 86.6348 89.8848C81.7588 94.7607 75.1456 97.5 68.25 97.5ZM68.25 52C64.3933 52 60.6231 53.1437 57.4164 55.2864C54.2096 57.429 51.7103 60.4745 50.2344 64.0377C48.7585 67.6008 48.3723 71.5216 49.1247 75.3043C49.8771 79.0869 51.7343 82.5615 54.4614 85.2886C57.1886 88.0157 60.6631 89.8729 64.4458 90.6253C68.2284 91.3777 72.1492 90.9916 75.7123 89.5157C79.2755 88.0398 82.321 85.5404 84.4637 82.3336C86.6064 79.1269 87.75 75.3568 87.75 71.5C87.75 66.3283 85.6956 61.3684 82.0386 57.7114C78.3816 54.0545 73.4217 52 68.25 52Z" fill="#2E8B1F"/>
<path d="M73.4175 81.25L65 72.8325V58.5H71.5V70.1675L78 76.6675L73.4175 81.25Z" fill="#2E8B1F"/>
<path d="M91 19.5C91 17.7761 90.3152 16.1228 89.0962 14.9038C87.8772 13.6848 86.2239 13 84.5 13H71.5V6.5H65V13H39V6.5H32.5V13H19.5C17.7761 13 16.1228 13.6848 14.9038 14.9038C13.6848 16.1228 13 17.7761 13 19.5V84.5C13 86.2239 13.6848 87.8772 14.9038 89.0962C16.1228 90.3152 17.7761 91 19.5 91H32.5V84.5H19.5V19.5H32.5V26H39V19.5H65V26H71.5V19.5H84.5V39H91V19.5Z" fill="#2E8B1F"/>
</svg>
