<svg width="92" height="72" viewBox="0 0 92 72" fill="none" xmlns="http://www.w3.org/2000/svg">
<path d="M88.25 0.25H3.75C1.95234 0.25 0.5 1.70234 0.5 3.5V68.5C0.5 70.2977 1.95234 71.75 3.75 71.75H88.25C90.0477 71.75 91.5 70.2977 91.5 68.5V3.5C91.5 1.70234 90.0477 0.25 88.25 0.25ZM84.1875 11.5031V64.4375H7.8125V11.5031L5.00938 9.31953L9.00078 4.19063L13.3477 7.57266H78.6625L83.0094 4.19063L87.0008 9.31953L84.1875 11.5031ZM78.6625 7.5625L46 32.9531L13.3375 7.5625L8.99063 4.18047L4.99922 9.30937L7.80234 11.493L42.4961 38.468C43.4938 39.2431 44.7213 39.6639 45.9848 39.6639C47.2482 39.6639 48.4757 39.2431 49.4734 38.468L84.1875 11.5031L86.9906 9.31953L82.9992 4.19063L78.6625 7.5625Z" fill="#2E8B1F"/>
</svg>
