<svg width="104" height="104" viewBox="0 0 104 104" fill="none" xmlns="http://www.w3.org/2000/svg">
<path d="M51.9993 60.6667C61.5587 60.6667 69.3327 52.8927 69.3327 43.3333C69.3327 33.774 61.5587 26 51.9993 26C42.44 26 34.666 33.774 34.666 43.3333C34.666 52.8927 42.44 60.6667 51.9993 60.6667ZM51.9993 34.6667C56.779 34.6667 60.666 38.5537 60.666 43.3333C60.666 48.113 56.779 52 51.9993 52C47.2197 52 43.3327 48.113 43.3327 43.3333C43.3327 38.5537 47.2197 34.6667 51.9993 34.6667Z" fill="#2E8B1F"/>
<path d="M49.4857 94.5273C50.2192 95.051 51.0979 95.3326 51.9991 95.3326C52.9003 95.3326 53.779 95.051 54.5124 94.5273C55.8297 93.5956 86.7914 71.24 86.6657 43.3333C86.6657 24.219 71.1134 8.66663 51.9991 8.66663C32.8847 8.66663 17.3324 24.219 17.3324 43.3116C17.2067 71.24 48.1684 93.5956 49.4857 94.5273ZM51.9991 17.3333C66.3381 17.3333 77.9991 28.9943 77.9991 43.355C78.0901 62.5863 58.9844 79.8546 51.9991 85.5183C45.0181 79.8503 25.9081 62.5776 25.9991 43.3333C25.9991 28.9943 37.6601 17.3333 51.9991 17.3333Z" fill="#2E8B1F"/>
</svg>
