<svg width="104" height="104" viewBox="0 0 104 104" fill="none" xmlns="http://www.w3.org/2000/svg">
<path d="M84.4994 94.25H83.9469C20.0844 90.5775 11.0169 36.6925 9.74938 20.2475C9.55128 17.6694 10.3854 15.1182 12.0681 13.1551C13.7509 11.192 16.1446 9.97765 18.7226 9.77925C18.9805 9.75975 19.2394 9.75 19.4994 9.75H36.6269C37.9287 9.74874 39.2009 10.1384 40.2787 10.8685C41.3565 11.5986 42.1902 12.6356 42.6719 13.845L47.6119 26C48.0875 27.1815 48.2056 28.4768 47.9513 29.7248C47.6971 30.9728 47.0818 32.1187 46.1819 33.02L39.2594 40.0075C40.3363 46.1543 43.2776 51.8212 47.6845 56.2397C52.0913 60.6581 57.7504 63.6144 63.8944 64.7075L70.9469 57.72C71.8618 56.83 73.0184 56.2291 74.2726 55.9921C75.5267 55.7551 76.8229 55.8927 77.9994 56.3875L90.2519 61.295C91.4431 61.7919 92.4594 62.6321 93.1713 63.7087C93.8832 64.7852 94.2585 66.0494 94.2494 67.34V84.5C94.2494 87.0859 93.2222 89.5658 91.3937 91.3943C89.5652 93.2228 87.0853 94.25 84.4994 94.25ZM19.4994 16.25C19.0726 16.2487 18.6497 16.3315 18.2549 16.4937C17.8601 16.6558 17.5011 16.8941 17.1984 17.195C16.8957 17.4959 16.6553 17.8535 16.4908 18.2473C16.3262 18.6411 16.2409 19.0635 16.2396 19.4903C16.2396 19.5813 16.2429 19.6712 16.2494 19.76C17.7444 39 27.3319 84.5 84.3044 87.75C85.1646 87.8015 86.01 87.5094 86.6548 86.9377C87.2996 86.366 87.691 85.5617 87.7429 84.7015L87.7494 84.5V67.34L75.4969 62.4325L66.1694 71.695L64.6094 71.5C36.3344 67.9575 32.4994 39.6825 32.4994 39.39L32.3044 37.83L41.5344 28.5025L36.6594 16.25H19.4994Z" fill="#2E8B1F"/>
<path d="M87.75 42.25V35.75H72.8455L94.25 14.3455L89.6545 9.75L68.25 31.1545V16.25H61.75V42.25H87.75Z" fill="#2E8B1F"/>
</svg>
